<svg id="visual" viewBox="0 0 900 600" width="900" height="600" xmlns="http://www.w3.org/2000/svg" xmlns:xlink="http://www.w3.org/1999/xlink" version="1.1"><rect x="0" y="0" width="900" height="600" fill="#ff3d3d"></rect><path d="M0 258L7.2 256.5C14.3 255 28.7 252 43 271.7C57.3 291.3 71.7 333.7 86 348.7C100.3 363.7 114.7 351.3 128.8 342C143 332.7 157 326.3 171.2 317.2C185.3 308 199.7 296 214 305.3C228.3 314.7 242.7 345.3 257 350.3C271.3 355.3 285.7 334.7 300 326C314.3 317.3 328.7 320.7 343 336.3C357.3 352 371.7 380 386 394.7C400.3 409.3 414.7 410.7 428.8 409.3C443 408 457 404 471.2 380.5C485.3 357 499.7 314 514 287.3C528.3 260.7 542.7 250.3 557 274.8C571.3 299.3 585.7 358.7 600 356.5C614.3 354.3 628.7 290.7 643 281C657.3 271.3 671.7 315.7 686 330.3C700.3 345 714.7 330 728.8 337.2C743 344.3 757 373.7 771.2 387C785.3 400.3 799.7 397.7 814 385.2C828.3 372.7 842.7 350.3 857 349C871.3 347.7 885.7 367.3 892.8 377.2L900 387L900 601L892.8 601C885.7 601 871.3 601 857 601C842.7 601 828.3 601 814 601C799.7 601 785.3 601 771.2 601C757 601 743 601 728.8 601C714.7 601 700.3 601 686 601C671.7 601 657.3 601 643 601C628.7 601 614.3 601 600 601C585.7 601 571.3 601 557 601C542.7 601 528.3 601 514 601C499.7 601 485.3 601 471.2 601C457 601 443 601 428.8 601C414.7 601 400.3 601 386 601C371.7 601 357.3 601 343 601C328.7 601 314.3 601 300 601C285.7 601 271.3 601 257 601C242.7 601 228.3 601 214 601C199.7 601 185.3 601 171.2 601C157 601 143 601 128.8 601C114.7 601 100.3 601 86 601C71.7 601 57.3 601 43 601C28.7 601 14.3 601 7.2 601L0 601Z" fill="#2a0018"></path><path d="M0 532L7.2 510.2C14.3 488.3 28.7 444.7 43 421.5C57.3 398.3 71.7 395.7 86 411.5C100.3 427.3 114.7 461.7 128.8 467.8C143 474 157 452 171.2 461.2C185.3 470.3 199.7 510.7 214 511.3C228.3 512 242.7 473 257 466.3C271.3 459.7 285.7 485.3 300 502.2C314.3 519 328.7 527 343 510C357.3 493 371.7 451 386 432.8C400.3 414.7 414.7 420.3 428.8 437.2C443 454 457 482 471.2 497.3C485.3 512.7 499.7 515.3 514 501.2C528.3 487 542.7 456 557 453.8C571.3 451.7 585.7 478.3 600 482.8C614.3 487.3 628.7 469.7 643 476.3C657.3 483 671.7 514 686 517.8C700.3 521.7 714.7 498.3 728.8 470C743 441.7 757 408.3 771.2 405.8C785.3 403.3 799.7 431.7 814 440.2C828.3 448.7 842.7 437.3 857 425C871.3 412.7 885.7 399.3 892.8 392.7L900 386L900 601L892.8 601C885.7 601 871.3 601 857 601C842.7 601 828.3 601 814 601C799.7 601 785.3 601 771.2 601C757 601 743 601 728.8 601C714.7 601 700.3 601 686 601C671.7 601 657.3 601 643 601C628.7 601 614.3 601 600 601C585.7 601 571.3 601 557 601C542.7 601 528.3 601 514 601C499.7 601 485.3 601 471.2 601C457 601 443 601 428.8 601C414.7 601 400.3 601 386 601C371.7 601 357.3 601 343 601C328.7 601 314.3 601 300 601C285.7 601 271.3 601 257 601C242.7 601 228.3 601 214 601C199.7 601 185.3 601 171.2 601C157 601 143 601 128.8 601C114.7 601 100.3 601 86 601C71.7 601 57.3 601 43 601C28.7 601 14.3 601 7.2 601L0 601Z" fill="#1c1c1c"></path></svg>